<svg height="512pt" viewBox="-43 0 512 512" width="512pt" xmlns="http://www.w3.org/2000/svg"><path d="M368 512H58.668C26.262 512 0 485.738 0 453.332V58.668C0 26.262 26.262 0 58.668 0H368c32.406 0 58.668 26.262 58.668 58.668v394.664C426.668 485.738 400.406 512 368 512zm0 0" fill="#eceff1"/><g fill="#607d8b"><path d="M352 426.668h-42.668c-17.64 0-32-14.36-32-32v-64c0-17.645 14.36-32 32-32H352c5.887 0 10.668 4.777 10.668 10.664 0 5.89-4.781 10.668-10.668 10.668h-42.668c-5.887 0-10.664 4.8-10.664 10.668v64c0 5.867 4.777 10.664 10.664 10.664h32V384h-10.664c-5.89 0-10.668-4.777-10.668-10.668 0-5.887 4.777-10.664 10.668-10.664H352c5.887 0 10.668 4.777 10.668 10.664V416c0 5.887-4.781 10.668-10.668 10.668zm0 0M213.332 426.668c-4.715 0-8.875-3.094-10.219-7.598l-32-106.664c-1.683-5.652 1.516-11.586 7.149-13.27 5.633-1.73 11.582 1.493 13.289 7.145l21.781 72.598 21.781-72.598c1.707-5.652 7.598-8.875 13.293-7.144a10.622 10.622 0 017.145 13.27l-32 106.663c-1.344 4.504-5.504 7.598-10.219 7.598zm0 0M112 426.668H74.668C68.778 426.668 64 421.887 64 416s4.777-10.668 10.668-10.668H112c8.832 0 16-7.187 16-16 0-8.809-7.168-16-16-16h-10.668C80.746 373.332 64 356.586 64 336s16.746-37.332 37.332-37.332h37.336c5.887 0 10.664 4.777 10.664 10.664 0 5.89-4.777 10.668-10.664 10.668h-37.336c-8.832 0-16 7.188-16 16s7.168 16 16 16H112c20.586 0 37.332 16.746 37.332 37.332 0 20.59-16.746 37.336-37.332 37.336zm0 0"/></g></svg>